<?xml version="1.0" encoding="UTF-8"?>
<svg id="_레이어_2" data-name="레이어 2" xmlns="http://www.w3.org/2000/svg" xmlns:xlink="http://www.w3.org/1999/xlink" viewBox="0 0 487.84 522.17">
  <defs>
    <style>
      .cls-1 {
        fill: url(#_무제_그라디언트_73);
      }
    </style>
    <linearGradient id="_무제_그라디언트_73" data-name="무제 그라디언트 73" x1="-17.08" y1="17.25" x2="411.36" y2="445.7" gradientUnits="userSpaceOnUse">
      <stop offset="0" stop-color="#50e3c2"/>
      <stop offset=".24" stop-color="#4be0c6"/>
      <stop offset=".51" stop-color="#3ed7d4"/>
      <stop offset=".8" stop-color="#28c9eb"/>
      <stop offset="1" stop-color="#15bdff"/>
    </linearGradient>
  </defs>
  <g id="_레이어_1-2" data-name="레이어 1">
    <path class="cls-1" d="M314.51,15.16C287.08,5.37,257.55,0,226.75,0H.17v147.99h226.58c60.19,0,109.15,52.91,109.15,113.09s-48.97,109.15-109.15,109.15-109.16-48.97-109.16-109.15c0-29.01,11.45-55.34,29.97-74.91h-2.45c-14.91.22-94.53,4.65-129.24,73.53,0,0-49.93,97.61,27.26,186.97,47.17,46.66,112.02,75.49,183.61,75.49,144.19,0,261.08-116.89,261.08-261.08,0-113.4-72.31-209.87-173.32-245.92Z"/>
  </g>
</svg>