<?xml version="1.0" encoding="UTF-8"?>
<svg id="_레이어_2" data-name="레이어 2" xmlns="http://www.w3.org/2000/svg" viewBox="0 0 1289.08 245.38">
  <defs>
    <style>
      .cls-1 {
        fill: #50e3c2;
      }
    </style>
  </defs>
  <g id="_레이어_1-2" data-name="레이어 1">
    <g>
      <path class="cls-1" d="M814.37,48.24c-10.67-3.81-22.15-5.9-34.12-5.9h-269.36V4.68h-57.55v37.66h-46.02v57.55h46.02v139.97h57.55V99.89h269.36c23.4,0,42.44,20.57,42.44,43.98s-19.04,42.44-42.44,42.44-42.44-19.04-42.44-42.44c0-11.28,4.45-21.52,11.65-29.13h-.95c-5.8.09-36.76,1.81-50.25,28.59,0,0-19.42,37.96,10.6,72.7,18.34,18.15,43.56,29.35,71.4,29.35,56.07,0,101.52-45.45,101.52-101.52,0-44.09-28.12-81.61-67.4-95.62Z"/>
      <polygon class="cls-1" points="57.55 0 0 49.31 0 120.71 82.1 49.74 82.1 239.83 139.65 239.83 139.65 0 82.1 0 57.55 0"/>
      <path class="cls-1" d="M276.45,0c-64.41,0-116.62,54.93-116.62,122.69s52.21,122.69,116.62,122.69,116.62-54.93,116.62-122.69S340.86,0,276.45,0ZM276.45,186.3c-31.73,0-57.54-28.54-57.54-63.61s25.81-63.61,57.54-63.61,57.54,28.54,57.54,63.61-25.81,63.61-57.54,63.61Z"/>
      <polygon class="cls-1" points="953.56 0 896.01 49.31 896.01 120.71 978.12 49.74 978.12 239.83 1035.66 239.83 1035.66 0 978.12 0 953.56 0"/>
      <path class="cls-1" d="M1172.46,0c-64.41,0-116.62,54.93-116.62,122.69s52.21,122.69,116.62,122.69,116.62-54.93,116.62-122.69S1236.87,0,1172.46,0ZM1172.46,186.3c-31.73,0-57.54-28.54-57.54-63.61s25.81-63.61,57.54-63.61,57.54,28.54,57.54,63.61-25.81,63.61-57.54,63.61Z"/>
    </g>
  </g>
</svg>